<svg width="1050" height="350" viewBox="0 0 277.809 92.603" xmlns="http://www.w3.org/2000/svg"><path style="fill:#00bef1;fill-opacity:1;stroke:maroon;stroke-width:0" d="M167.215-.264H13.287C5.926-.264 0 6.43 0 14.745V77.33c0 8.315 5.926 15.009 13.287 15.009h153.928z" transform="translate(0 .264)"/><path style="fill:#00a4cc;fill-opacity:1;stroke:maroon;stroke-width:0" d="M167.215-.264v92.603h97.422c7.297 0 13.172-6.694 13.172-15.01V14.746c0-8.315-5.875-15.01-13.172-15.01z" transform="translate(0 .264)"/><g style="fill:#fff;fill-opacity:1"><path d="M15.505 50.526h8.044c5.013 0 9.093 4.546 9.21 9.21.35 13.29-23.783 8.393-30.894 4.896L0 81.536c5.246 2.215 17.603 4.197 25.88 3.73 16.205-.816 24.948-11.424 24.598-25.53-.116-6.529-3.03-13.873-9.676-17.72 6.762-4.43 8.977-9.793 8.86-16.321C49.312 11.472 38.937.98 23.898.048c-8.277-.35-16.67 1.282-21.916 3.38l2.565 15.738c6.528-3.38 26.929-5.712 27.279 6.529.116 4.78-3.614 7.81-8.627 7.81h-8.044zM84.985 36.537 99.558 1.33h-18.07L62.136 47.845c-7.46 18.07 1.749 37.188 21.8 37.654 16.088.234 25.298-11.308 25.298-24.83 0-15.622-9.676-24.249-24.249-24.132zm7.811 24.015c-.583 11.308-17.37 10.958-17.487-.233-.116-11.891 17.953-11.542 17.487.233zM148.637 85.733c20.75 0 28.678-19.236 28.678-42.901 0-23.666-7.927-42.784-28.678-42.784-20.518 0-28.562 19.118-28.562 42.784 0 23.665 8.044 42.9 28.562 42.9zm0-15.739c-9.21 0-12.357-12.124-12.357-27.162 0-14.922 3.147-27.163 12.357-27.163 9.443 0 12.59 12.24 12.59 27.163 0 15.038-3.147 27.162-12.59 27.162z" style="font-size:116.578px;line-height:1.25;font-family:Lovelo;-inkscape-font-specification:'Lovelo, Normal';fill:#fff;fill-opacity:1;stroke-width:.436169" transform="matrix(.78089 0 0 .78089 16.933 12.828)"/></g><g style="fill:#fff;fill-opacity:1"><path style="font-size:116.578px;line-height:1.25;font-family:Lovelo;-inkscape-font-specification:'Lovelo, Normal';fill:#fff;fill-opacity:1;stroke-width:.436168" d="m243.583 14.155 16.737 28.902-17.23 29.174h19.87l7.502-13.32 7.448 13.32h19.224l-17.23-29.174 16.824-28.902h-19.25l-7.016 13.047-7.08-13.047z" transform="matrix(.78089 0 0 .78089 28.575 12.81)"/><path d="M236.07 84.567v-16.67h-26.463V51.224h21.917v-16.67h-21.917v-16.67h25.065V1.212h-41.735v83.354z" style="font-size:116.578px;line-height:1.25;font-family:Lovelo;-inkscape-font-specification:'Lovelo, Normal';fill:#fff;fill-opacity:1;stroke-width:.436169" transform="matrix(.78089 0 0 .78089 28.575 12.81)"/></g><text xml:space="preserve" style="font-size:70.7173px;line-height:1.25;font-family:Lovelo;-inkscape-font-specification:'Lovelo, Normal';fill:#000;fill-opacity:1;stroke-width:.264583" x="222.515" y="76.465" transform="translate(0 .264)"/><text xml:space="preserve" style="font-size:70.7173px;line-height:1.25;font-family:Lovelo;-inkscape-font-specification:'Lovelo, Normal';stroke-width:.264583" x="275.696" y="49.742" transform="translate(0 .264)"/></svg>